PathFileType	4	(X/Y/Z)	SUBJ24_3_walk_RCNL2025.trc
DataRate	CameraRate	NumFrames	NumMarkers	Units	OrigDataRate	OrigDataStartFrame	OrigNumFrames
100	100	4	25	mm	100	153	406
Frame#	Time	R_Shoulder			L_Shoulder			C7			J_Notch			R_Elbow			L_Elbow			R_Wrist			L_Wrist			R_Asis			L_Asis			Sacral			Thoracic			Sternum			R_Thigh_Lateral			R_Knee_Lateral			R_Shank_Lateral			R_Ankle_Lateral			R_Heel			R_Toe			L_Thigh_Lateral			L_Knee_Lateral			L_Shank_Lateral			L_Ankle_Lateral			L_Heel			L_Toe		
		X1	Y1	Z1	X2	Y2	Z2	X3	Y3	Z3	X4	Y4	Z4	X5	Y5	Z5	X6	Y6	Z6	X7	Y7	Z7	X8	Y8	Z8	X9	Y9	Z9	X10	Y10	Z10	X11	Y11	Z11	X12	Y12	Z12	X13	Y13	Z13	X14	Y14	Z14	X15	Y15	Z15	X16	Y16	Z16	X17	Y17	Z17	X18	Y18	Z18	X19	Y19	Z19	X20	Y20	Z20	X21	Y21	Z21	X22	Y22	Z22	X23	Y23	Z23	X24	Y24	Z24	X25	Y25	Z25
153	1.52000000	-1475.386353	1309.668091	376.939392	-1511.419678	1319.866455	32.922756	-1577.952881	1376.326050	213.091293	-1441.939941	1288.269409	199.900955	-1485.754761	1025.256958	470.570007	-1546.956177	1027.080322	-50.782963	-1391.357300	807.417419	457.580826	-1472.218750	803.302948	-45.345579	-1466.617065	865.788391	367.658173	-1463.752197	876.144714	40.206844	-1639.376343	914.819885	211.701447	-1640.947266	1108.587280	211.644913	-1367.206055	1071.415039	193.746368	-1524.775269	556.810120	411.524719	-1456.123047	423.855042	351.389252	-1573.148560	339.464142	389.375610	-1757.163330	201.300568	303.488495	-1791.741821	224.914581	238.617432	-1718.692993	75.707474	299.416901	-1455.817505	561.994507	34.829342	-1421.067871	438.662201	100.052757	-1431.702148	280.249664	57.518414	-1452.992310	58.271057	133.510529	-1501.905884	33.048225	189.466202	-1335.048462	39.916821	164.124100
154	1.53000000	-1465.034546	1311.081909	377.073303	-1499.617432	1322.221313	32.930290	-1566.636230	1378.320923	212.937866	-1430.739746	1289.941895	200.068176	-1478.572266	1026.795410	470.727173	-1530.838989	1029.539062	-52.527870	-1387.185425	807.670624	458.946762	-1449.741211	807.968658	-45.870818	-1456.066772	868.533630	367.663818	-1454.274658	877.312073	39.900166	-1629.085083	916.846069	211.447571	-1630.255493	1110.582397	210.448029	-1356.788452	1072.864258	193.954758	-1505.452026	559.189636	412.292938	-1433.090332	427.516296	352.234680	-1548.242065	341.143921	389.944946	-1730.191650	200.268097	303.956299	-1766.247803	221.884842	238.864929	-1686.879883	76.994133	301.872375	-1450.302246	562.899902	34.644409	-1418.499146	438.627777	99.957336	-1430.325562	280.173309	57.452686	-1453.014526	58.306046	133.499664	-1501.993286	33.083340	189.414093	-1335.114868	39.903744	164.149948
155	1.54000000	-1454.768555	1312.390259	377.180511	-1487.862061	1324.510742	32.939686	-1555.375977	1380.159790	212.765991	-1419.598877	1291.464478	200.268799	-1471.619385	1028.277100	470.949158	-1514.861694	1032.002075	-54.264973	-1383.002441	808.036530	460.260864	-1427.361694	812.892700	-46.281403	-1445.435059	871.193359	367.685974	-1444.820312	878.372070	39.609848	-1618.813354	918.708557	211.327347	-1619.575928	1112.423462	209.274841	-1346.467041	1074.201294	194.159363	-1486.457397	561.522400	412.914948	-1410.474243	431.328186	352.918488	-1523.287109	342.265350	390.508270	-1702.403564	197.738449	304.557098	-1740.024536	217.252838	239.354446	-1653.777954	77.158516	304.028442	-1444.931396	563.646606	34.593544	-1416.019531	438.581360	99.900978	-1429.099121	280.126312	57.427685	-1453.016235	58.339291	133.510223	-1502.069824	33.125217	189.381714	-1335.167114	39.890228	164.189285
156	1.55000000	-1444.592407	1313.573853	377.263550	-1476.161743	1326.676514	32.943317	-1544.173950	1381.808472	212.560074	-1408.522461	1292.812744	200.487869	-1464.862549	1029.681885	471.221680	-1499.059326	1034.419067	-55.995377	-1378.781677	808.469849	461.513474	-1405.109680	818.006836	-46.575718	-1434.661743	873.700562	367.696289	-1435.361084	879.306030	39.329433	-1608.547974	920.384521	211.348801	-1608.908813	1114.092529	208.136337	-1336.221191	1075.404297	194.352570	-1467.875610	563.768921	413.395477	-1388.373901	435.215210	353.453979	-1498.420288	342.889771	391.064301	-1673.842773	193.804443	305.295105	-1713.058472	211.087601	240.088348	-1619.519409	76.326714	305.911133	-1439.723633	564.210693	34.688114	-1413.569214	438.522278	99.895821	-1427.977783	280.102356	57.443966	-1452.984009	58.363956	133.553192	-1502.132690	33.172607	189.378174	-1335.200806	39.874760	164.245117
